# xmcd
#
# Track frame offsets: 
#        150
#        17556
#        43185
#        76890
#        95982
#        112226
#        129851
#
# Disc length: 2019 seconds
#
# Revision: 0
# Processed by: cddbd v1.5.2PL0 Copyright (c) Steve Scherf et al.
# Submitted via: ExactAudioCopy v0.95b3
#
DISCID=5707e107
DTITLE=Ryan Adams - Love Is Hell (Disc2 Jpn Version)
DYEAR=2007
DGENRE=Country
TTITLE0=Halloween
TTITLE1=Caterwaul
TTITLE2=Fuck The Universe
TTITLE3=Twice As Bad As Love
TTITLE4=Father's Son
TTITLE5=Gimme Sunshine
TTITLE6=Black Clouds
EXTD=
EXTT0=
EXTT1=
EXTT2=
EXTT3=
EXTT4=
EXTT5=
EXTT6=
PLAYORDER=
